<svg width="21" height="23" viewBox="0 0 21 23" fill="none" xmlns="http://www.w3.org/2000/svg">
<path d="M20.4011 16.2526L15.8073 14.0963C15.611 14.0047 15.3929 13.9854 15.1858 14.0413C14.9787 14.0972 14.7937 14.2253 14.6588 14.4063L12.6244 17.1286C9.4316 15.4799 6.86212 12.6657 5.35673 9.16876L7.84232 6.94059C8.0079 6.7931 8.12509 6.59055 8.17615 6.36359C8.22722 6.13663 8.20938 5.89762 8.12534 5.68276L6.15655 0.651421C6.06431 0.419803 5.90117 0.230695 5.69526 0.116705C5.48935 0.00271565 5.25358 -0.0290113 5.0286 0.0269955L0.762904 1.10514C0.545997 1.16 0.352472 1.29376 0.213915 1.48459C0.0753574 1.67543 -4.99665e-05 1.91206 2.48403e-08 2.15588C2.48403e-08 13.6785 8.5273 23 19.0316 23C19.2543 23.0002 19.4704 22.9176 19.6447 22.7659C19.8191 22.6141 19.9413 22.4021 19.9914 22.1644L20.9758 17.4925C21.0266 17.2449 20.997 16.9856 20.8921 16.7593C20.7872 16.533 20.6136 16.3538 20.4011 16.2526Z" fill="#888888"/>
</svg>
