<svg width="25" height="26" viewBox="0 0 25 26" fill="none" xmlns="http://www.w3.org/2000/svg">
<path d="M21.2556 3.77812C18.9174 1.34062 15.8036 0 12.4944 0C5.66406 0 0.106027 5.78036 0.106027 12.8839C0.106027 15.1531 0.675223 17.3701 1.75781 19.3259L0 26L6.56808 24.2067C8.37612 25.2339 10.4129 25.7737 12.4888 25.7737H12.4944C19.3192 25.7737 25 19.9933 25 12.8897C25 9.44821 23.5938 6.21562 21.2556 3.77812ZM12.4944 23.6031C10.6417 23.6031 8.82812 23.0866 7.24888 22.1116L6.875 21.8795L2.97991 22.9415L4.01786 18.9893L3.77232 18.583C2.73996 16.8768 2.19866 14.9094 2.19866 12.8839C2.19866 6.9817 6.8192 2.17634 12.5 2.17634C15.2511 2.17634 17.8348 3.29062 19.7768 5.31607C21.7188 7.34152 22.9129 10.0286 22.9074 12.8897C22.9074 18.7978 18.1696 23.6031 12.4944 23.6031ZM18.1417 15.5826C17.8348 15.4201 16.3114 14.6424 16.0268 14.5379C15.7422 14.4277 15.5357 14.3754 15.3292 14.7004C15.1228 15.0254 14.5312 15.7451 14.3471 15.9656C14.1685 16.1804 13.9844 16.2094 13.6775 16.0469C11.8583 15.1009 10.6641 14.358 9.46429 12.2165C9.14621 11.6478 9.78237 11.6884 10.3739 10.458C10.4743 10.2433 10.4241 10.0576 10.346 9.89509C10.2679 9.73259 9.64844 8.14821 9.39174 7.50402C9.14062 6.87723 8.88393 6.96429 8.6942 6.95268C8.51562 6.94107 8.30915 6.94107 8.10268 6.94107C7.8962 6.94107 7.56138 7.02232 7.27679 7.34152C6.99219 7.66652 6.1942 8.4442 6.1942 10.0286C6.1942 11.6129 7.30469 13.1451 7.45536 13.3598C7.61161 13.5746 9.63728 16.8246 12.7455 18.2232C14.7098 19.1054 15.4799 19.1808 16.4621 19.0299C17.0592 18.9371 18.2924 18.2522 18.5491 17.4978C18.8058 16.7433 18.8058 16.0991 18.7277 15.9656C18.6551 15.8205 18.4487 15.7393 18.1417 15.5826Z" fill="#888888"/>
</svg>
