<svg  viewBox="0 0 95 76" fill="none" xmlns="http://www.w3.org/2000/svg" >
    <g id="tng-plane"  fill="#015088">
        <path d="M95.0001 19.8736C94.1897 19.9913 93.5342 20.2972 93.2601 21.1444C93.1409 21.521 92.9502 21.8622 92.7952 22.2269C92.545 22.8388 92.6761 22.9918 93.3554 22.9447C93.6057 22.9212 93.8679 22.9212 94.1301 22.9447C94.285 22.9565 94.4638 23.0388 94.4757 23.2153C94.4876 23.4271 94.2969 23.4389 94.142 23.4742C94.1182 23.4742 94.1062 23.486 94.0824 23.486C92.5092 23.5213 91.9491 24.5449 91.52 25.851C90.6381 28.5691 89.7799 31.3107 88.5762 33.9111C88.5047 34.0523 88.4689 34.217 88.3736 34.3347C88.1948 34.57 87.9207 34.8524 87.6704 34.8171C87.3248 34.7583 87.4797 34.3465 87.5036 34.1111C87.6585 31.4872 87.8373 28.875 88.016 26.2511C88.0876 25.2509 88.1591 24.2626 88.2187 23.2624C88.2544 22.7329 88.016 22.5211 87.5036 22.6741C85.2629 23.3565 83.0342 24.0625 80.8055 24.7685C80.4361 24.8862 80.2454 25.1803 80.1024 25.5216C79.6971 26.5453 79.3158 27.5689 78.7675 28.522C78.6603 28.7103 78.5411 28.875 78.3027 28.9456C77.6949 29.1457 77.5638 29.0515 77.6115 28.4161C77.671 27.6513 77.671 26.8865 77.7306 26.1334C77.7783 25.5686 77.528 25.4627 77.0155 25.5804C76.7057 25.651 76.372 25.6392 75.9072 25.6745C76.2885 25.2862 76.5388 25.0038 76.8248 24.745C77.1109 24.4979 77.1466 24.2979 76.8606 24.0272C76.36 23.5566 75.8952 23.0388 75.3947 22.5682C75.1444 22.3211 74.9775 22.121 75.2278 21.768C75.4781 21.4033 75.7522 21.3445 76.1336 21.5327C77.0394 21.9798 77.969 22.3799 78.8629 22.8388C79.2323 23.0271 79.578 23.0388 79.9355 22.8623C81.759 21.9681 83.5825 21.0621 85.4179 20.1678C85.5371 20.109 85.6682 20.0619 85.7993 19.9913C86.9672 19.403 86.9911 19.1559 86.0376 18.2969C83.4275 15.9672 80.8294 13.6374 78.2193 11.3076C78.0524 11.1546 77.7783 11.0134 77.8737 10.7428C77.969 10.4957 78.267 10.531 78.5053 10.5075C78.9582 10.4604 79.3515 10.5545 79.7567 10.7663C82.4502 12.2019 85.1676 13.5903 87.8373 15.0376C88.5762 15.4377 89.184 15.5553 89.8157 14.9199C89.911 14.8258 90.0421 14.767 90.1613 14.6846C90.3878 14.5316 90.6142 14.5552 90.8168 14.7434C91.0671 14.9788 90.8287 15.12 90.7096 15.2847C90.6142 15.4141 90.5189 15.5553 90.3878 15.6259C89.7442 15.9436 90.0779 16.1554 90.4474 16.4143C90.9956 16.7908 91.6392 16.9438 92.247 17.1791C92.4735 17.2732 92.6641 17.1085 92.8668 17.0379C93.5818 16.7555 94.2254 16.3201 94.9882 16.1319C95.0001 17.3674 95.0001 18.6146 95.0001 19.8736Z"/>
    </g>
  
    <g id="tng-circle"  fill="#015088">
        <path d="M18.5685 46.6425C18.9499 47.4191 19.3075 48.1721 19.6889 48.9017C20.5827 50.6549 21.6554 52.3022 22.8948 53.8436C24.0152 55.232 25.2308 56.5499 26.5895 57.7148C28.27 59.1503 30.0577 60.4446 32.0242 61.4801C33.5616 62.292 35.1348 63.0332 36.7915 63.5745C38.3647 64.0922 39.9856 64.4923 41.6183 64.8218C43.9901 65.2924 46.3856 65.0453 48.7693 65.0689C50.5689 65.0924 52.309 64.7394 54.049 64.3511C55.372 64.0569 56.6472 63.6216 57.9225 63.1744C58.9236 62.8215 59.9009 62.3626 60.8543 61.8566C61.927 61.28 62.9639 60.6799 63.9888 60.0328C64.9423 59.4327 65.7885 58.7267 66.6585 58.0325C67.7788 57.1618 68.768 56.1381 69.6976 55.0791C71.104 53.4671 72.4031 51.7609 73.428 49.8783C74.1193 48.6075 74.7986 47.3367 75.2754 45.9836C75.7521 44.6304 76.2527 43.2773 76.5029 41.8417C76.6936 40.7828 76.9439 39.7238 77.0631 38.6648C77.1704 37.7117 77.0869 36.7468 77.075 35.782C77.0631 34.6877 77.0273 33.5816 77.0154 32.4873C76.9916 31.1813 76.6817 29.9222 76.3718 28.6632C76.2407 28.122 76.0977 27.5807 75.9666 27.0394C75.9428 26.9571 75.9428 26.8629 76.0262 26.8276C76.3361 26.6865 76.6817 26.5688 77.0035 26.6394C77.2895 26.71 77.1346 27.0394 77.1227 27.263C77.0988 27.7925 77.0631 28.322 77.0035 28.8397C76.9677 29.1692 77.1108 29.3457 77.3849 29.4987C77.945 29.8163 79.113 29.581 79.5421 29.0986C80.1499 28.4161 80.3764 27.5454 80.722 26.7453C80.9246 26.2864 81.1034 25.8157 81.449 25.3215C81.8542 26.2746 82.0449 27.2042 82.2356 28.1337C82.76 30.6282 83.1295 33.158 83.0818 35.7114C82.9388 43.7479 80.4955 51.0196 75.4899 57.3853C70.3651 63.8922 63.7028 68.1517 55.5984 70.1638C51.4032 71.211 47.1603 71.5169 42.8459 71.0227C35.6712 70.1873 29.283 67.5398 23.7053 63.0333C20.6661 60.574 18.1276 57.6795 16.0419 54.3966C15.875 54.1378 15.7678 53.9024 15.8989 53.5847C16.757 51.3491 17.6032 49.1135 18.4613 46.8778C18.4613 46.7954 18.497 46.7484 18.5685 46.6425Z"/>
        <path d="M75.2875 25.098C74.8465 23.8743 74.2864 22.7447 73.6905 21.6387C72.8324 20.0619 71.8432 18.5911 70.7109 17.1791C69.5906 15.7789 68.375 14.4728 67.0163 13.3197C65.3477 11.9077 63.5719 10.6252 61.6293 9.58973C60.0918 8.77784 58.5067 8.04832 56.862 7.49529C55.2769 6.9658 53.6441 6.55397 51.9874 6.23627C49.6395 5.77738 47.2678 6.02448 44.8961 5.98918C43.0726 5.96564 41.3206 6.34217 39.5567 6.74223C37.4234 7.21289 35.3735 7.93065 33.4308 8.87197C31.5715 9.76623 29.7957 10.8252 28.1629 12.1195C26.7923 13.2138 25.4575 14.3434 24.2895 15.626C22.6925 17.3792 21.2742 19.2383 20.1539 21.3327C19.4746 22.6035 18.7952 23.8743 18.3185 25.2392C17.8656 26.5218 17.4127 27.8043 17.1505 29.1692C16.9479 30.24 16.8049 31.3343 16.5665 32.405C16.5308 32.558 16.5427 32.711 16.5427 32.8757C16.5665 34.9348 16.5546 36.994 16.65 39.0531C16.6857 39.9709 16.8645 40.8887 17.1386 41.783C17.1863 41.9359 17.2578 42.1242 17.1505 42.2183C16.9956 42.3477 16.8645 42.1595 16.7453 42.0653C14.8265 40.7004 12.9196 39.3355 11.0007 37.9706C10.7266 37.7823 10.6432 37.547 10.6313 37.2293C10.381 29.5575 12.3236 22.4858 16.5904 16.0496C19.4031 11.8018 23.0143 8.33072 27.3287 5.61265C31.2855 3.11814 35.5999 1.45906 40.2242 0.623639C48.5073 -0.87071 56.3972 0.353009 63.8461 4.20066C69.9601 7.36586 74.7393 11.943 78.2075 17.8381C78.8868 18.9912 79.5423 20.1561 80.0429 21.3916C80.1263 21.5916 80.3528 21.8152 80.0667 22.0152C79.7807 22.227 79.5304 22.4505 79.1133 22.227C78.0764 21.6975 77.0037 21.2268 75.9549 20.7091C75.5974 20.5208 75.4186 20.5797 75.1922 20.9091C74.2387 22.2976 74.2268 22.2858 75.4186 23.4389C75.4425 23.4625 75.4782 23.4978 75.5021 23.5213C76.3244 24.3567 76.3244 24.3567 75.2875 25.098Z"/>
    </g>
    
    <g id="tng-tail"  fill="#015088">
        <path d="M6.07838 75.9412C6.32866 74.0821 6.57895 72.223 6.84115 70.3638C7.38939 66.3868 7.93762 62.4097 8.48586 58.4326C9.01026 54.632 9.52274 50.8314 10.0591 47.0308C10.1067 46.6661 10.0233 46.4072 9.77303 46.1366C6.71005 42.8537 3.67091 39.5473 0.607926 36.2762C0.238462 35.8762 0.0358524 35.4761 0.0596888 34.9231C0.0835252 34.0759 0.0358524 33.2405 0.0239342 32.3933C0.0239342 32.2285 -0.0714114 31.9932 0.107362 31.9108C0.274217 31.8285 0.429153 32.0167 0.572172 32.1109C1.90701 33.064 3.24185 34.017 4.57669 34.9701C8.78382 37.9588 12.979 40.9358 17.1981 43.9127C17.5079 44.1363 17.5794 44.3363 17.4483 44.7011C16.3161 47.7956 15.2196 50.902 14.0993 53.9966C12.7883 57.6325 11.4892 61.2683 10.1782 64.8924C8.84341 68.5989 7.50857 72.2936 6.17373 76C6.14989 75.9647 6.11414 75.953 6.07838 75.9412Z"/>
    </g>
    

    <g id="tng-india"  fill="#015088">
          <path d="M32.4173 38.3354C32.5008 39.3355 32.3816 39.5356 31.4519 39.9709C29.986 40.6534 29.7238 40.6063 28.5439 39.5003C28.1744 39.1473 27.7931 38.7943 27.4355 38.4413C27.1256 38.1353 27.1495 37.9235 27.6143 37.7823C28.0314 37.6647 28.4486 37.547 28.818 37.3117C29.0564 37.1587 29.2113 36.994 29.1994 36.6881C28.7108 36.5586 28.2817 36.8528 27.8169 36.9116C26.637 37.0528 25.9219 36.2998 26.2437 35.1466C26.4701 34.3112 27.1376 34.0641 28.0791 34.4053C28.3294 34.4995 28.5082 34.4995 28.7346 34.3818C29.1041 34.1936 29.4378 33.6994 29.9383 34.2524C30.0575 34.3936 30.3316 34.1465 30.3436 33.8994C30.3793 33.5582 30.4389 33.1934 30.1886 32.8875C29.8192 32.4403 29.843 31.6873 29.0326 31.5696C28.7584 31.5343 28.8299 31.1813 28.8419 30.9578C28.8657 30.5106 28.8299 30.1929 28.2579 30.0753C27.6381 29.9458 27.5547 29.2987 28.1029 28.7927C28.389 28.5221 28.6393 28.2515 28.8299 27.8867C29.0564 27.4631 29.3543 27.4749 29.7 27.8396C29.7715 27.9102 29.8311 27.9926 29.9145 28.0279C30.1171 28.1103 31.6665 27.5455 31.7976 27.3572C31.9048 27.1925 32.0359 27.0513 32.1313 26.8748C32.4173 26.3335 32.7391 25.8629 33.3589 25.604C33.7164 25.451 33.7641 24.9568 33.9429 24.6038C34.0501 24.392 34.0859 24.0273 34.2289 23.9802C34.9797 23.7566 35.0036 22.9801 35.4684 22.5565C36.0881 22.0034 36.2431 21.3327 36.0524 20.5561C35.9809 20.2385 36.2192 20.1443 36.4218 20.0384C36.5768 19.9443 36.7436 19.8855 36.9105 19.8384C37.0893 19.7796 37.28 19.6854 37.3038 19.5207C37.3395 19.2854 37.0773 19.3089 36.9224 19.2265C36.2192 18.8735 35.5876 18.3911 34.8248 18.1322C34.5984 18.0499 34.4434 17.8498 34.4077 17.591C34.2885 16.7203 34.1812 15.8378 34.5626 14.9906C34.5864 14.9317 34.6103 14.8847 34.6222 14.8259C34.7175 14.4846 35.5876 14.367 34.9797 13.8728C34.6579 13.6021 34.5507 13.1785 34.074 13.0138C33.6449 12.8726 33.3469 12.4725 32.8106 12.4608C32.4769 12.449 32.3697 11.9313 32.6795 11.6607C33.1324 11.2724 33.478 10.7664 34.217 10.6605C34.6699 10.6017 35.1943 10.4252 35.671 10.2487C36.6364 9.90744 37.566 10.1545 38.2572 10.9547C38.4479 11.1782 38.6386 11.4136 38.9247 11.5195C39.318 11.6607 39.604 11.8725 39.8185 12.2843C40.1284 12.8961 41.356 13.1315 41.9876 12.8255C42.524 12.5667 43.0364 12.2725 43.6562 12.2725C44.0614 12.2725 44.4428 12.249 44.6812 12.6843C44.8242 12.9667 45.1698 12.9197 45.4201 12.9667C45.718 13.0256 45.73 13.1668 45.73 13.4139C45.7538 14.1199 45.3367 14.5788 44.848 14.9788C44.6454 15.1318 44.5024 15.2965 44.4547 15.5436C44.407 15.7672 44.2759 15.8966 44.0495 15.9201C43.5013 15.979 43.537 16.3202 43.6443 16.685C43.7992 17.2262 44.1329 17.7086 44.2879 18.2617C44.4428 18.8147 44.0376 18.9677 43.7396 19.1559C43.4655 19.3324 43.3344 19.05 43.2391 18.8265C43.1556 18.6382 43.0364 18.6853 42.9173 18.7794C42.7623 18.9088 42.4763 19.0383 42.6551 19.2854C43.0245 19.8149 43.0603 20.4267 43.2391 21.0033C43.3582 21.3916 43.6204 21.7563 44.1925 21.721C44.562 21.6975 44.9314 21.8505 45.1698 22.1917C45.4558 22.5918 45.9564 22.6271 46.3497 22.8271C46.7907 23.0507 46.8503 23.3095 46.457 23.5448C45.718 24.0037 45.8253 24.8509 45.4916 25.4863C45.3486 25.757 45.6704 26.0041 45.8968 26.0394C46.6834 26.157 47.2555 26.6159 47.8156 27.0866C48.2924 27.4984 48.9002 27.5102 49.4484 27.6984C49.7583 27.8043 49.9252 28.075 50.235 28.1573C50.8309 28.3103 51.4388 28.3103 52.0466 28.2279C52.5353 28.1573 52.9524 28.2279 53.1788 28.7104C53.2503 28.8516 53.3576 28.9104 53.4887 28.9692C54.2276 29.2751 54.9308 29.7105 55.7889 29.6281C55.9319 29.6164 56.0988 29.6752 56.2418 29.7223C57.0642 30.0164 57.9104 30.0753 58.7566 29.8988C59.2094 29.8046 59.2094 29.3457 59.0545 29.028C58.7923 28.4633 58.9592 27.9573 59.1022 27.4278C59.2094 27.016 59.5908 27.016 59.9007 26.9336C60.0437 26.8983 60.1629 27.0277 60.1867 27.1689C60.2106 27.2984 60.2106 27.4396 60.2106 27.569C60.1391 29.0633 61.1283 29.734 62.5942 29.1692C62.7492 29.1104 62.8922 29.0869 63.0471 29.1339C63.8337 29.3104 64.6084 29.181 65.3831 29.0163C65.5857 28.9692 65.7645 28.9221 65.6691 28.6868C65.5499 28.4162 65.9075 27.9808 65.3831 27.8396C65.2281 27.8043 64.954 27.8867 64.9779 27.6278C65.0017 27.416 65.2639 27.4749 65.4308 27.4396C65.6572 27.3925 65.8956 27.3572 66.1339 27.3454C66.3246 27.3337 66.5272 27.2866 66.5987 27.1219C66.8013 26.6159 67.3615 26.4512 67.6118 26.0041C67.731 25.804 67.9455 25.6981 68.1958 25.6393C68.7202 25.5216 69.2207 25.3687 69.5187 24.8509C69.6498 24.6274 69.9001 24.5568 70.1504 24.6862C70.7105 24.9804 71.2111 24.8627 71.7236 24.5568C72.1645 24.2861 72.4863 24.4391 72.82 24.8627C73.4636 25.6511 73.9403 26.4629 73.845 27.5219C73.8092 27.8632 73.7735 28.0514 73.3444 28.0397C72.8558 28.0279 72.4387 28.2985 72.0692 28.6045C71.7593 28.8516 71.4733 29.1222 71.1038 29.2751C70.8416 29.381 70.7463 29.6164 70.7939 29.9105C70.8655 30.4165 70.7939 30.8754 70.4006 31.2637C70.198 31.4637 70.1265 31.6991 70.2219 32.0167C70.353 32.4639 69.9597 32.7816 69.7928 33.1346C69.5187 33.7111 69.2088 34.3818 68.315 34.1818C68.017 34.1112 68.0289 34.3112 68.0289 34.5348C68.0408 35.029 68.1481 35.5467 67.6833 35.9585C67.5045 36.1233 67.5999 36.4527 67.6475 36.6998C67.7071 37.0293 67.576 37.2764 67.3138 37.4529C66.992 37.6647 66.6107 37.4999 66.5987 37.1117C66.5868 36.6998 66.5391 36.3115 66.2889 35.9468C66.1697 35.7703 66.2174 35.4879 66.2889 35.2525C66.3604 35.0172 66.3365 34.8172 66.0624 34.7466C65.8241 34.676 65.6214 34.7466 65.5142 34.9819C65.4188 35.1937 65.3354 35.4173 65.2877 35.6408C65.1924 36.0174 65.0136 35.9703 64.7991 35.7585C64.1555 35.1819 64.2747 34.1936 65.1447 33.8406C65.8479 33.5464 65.9432 32.9228 66.2054 32.405C66.3723 32.0991 65.8956 32.0756 65.6691 32.0756C64.9183 32.0638 64.1674 32.0873 63.4166 32.0873C63.2616 32.0873 63.0948 32.0991 62.9398 32.0873C62.0937 31.9932 61.903 31.7579 61.9149 30.9107C61.9268 30.593 62.0341 30.1576 61.4262 30.5577C61.1521 30.7342 60.8661 30.4989 60.735 30.1929C60.6396 29.9811 60.58 29.8752 60.3178 30.0753C59.9126 30.3812 60.0199 29.6046 59.6385 29.7576C59.4478 29.7929 59.6147 30.0047 59.5074 30.1223C59.3286 30.3459 58.9592 30.5459 59.126 30.8519C59.3048 31.1813 59.6147 31.452 59.996 31.5814C60.2225 31.652 60.3298 31.7696 60.3298 32.052C59.6862 31.8755 59.5074 32.4874 59.126 32.758C58.8519 32.9581 59.0545 33.417 59.4836 33.4758C60.008 33.5464 60.1391 33.8288 60.0556 34.2759C59.9603 34.7583 60.1629 35.1702 60.3059 35.6173C60.5562 36.4174 60.5085 37.2764 60.6277 38.1C60.6396 38.1471 60.592 38.2177 60.5562 38.253C60.4132 38.406 59.3167 38.2412 59.2571 38.0412C59.1737 37.7941 59.0784 37.747 58.8996 37.9471C58.6135 38.253 58.2441 38.3707 57.8508 38.4766C57.1357 38.6884 57.0522 38.9355 57.1238 39.6532C57.1834 40.3121 56.7901 40.8887 56.2418 41.2299C55.8247 41.4888 55.3718 41.8653 54.7759 41.5947C54.5733 41.5006 54.4422 41.6771 54.3587 41.83C54.0369 42.489 53.5483 43.042 53.0597 43.5715C52.2135 44.4893 51.1766 45.207 50.1397 45.913C49.7941 46.1483 49.4842 46.3248 49.5199 46.8661C49.5438 47.3721 49.0194 47.525 48.6261 47.5368C48.0898 47.5603 47.7322 47.7251 47.5177 48.231C47.4223 48.4663 47.2674 48.7134 46.886 48.4663C46.6238 48.3016 46.3497 48.5252 46.1709 48.7487C45.8968 49.09 45.6584 49.5136 45.7419 49.9372C45.873 50.5843 45.8015 51.255 46.0517 51.8904C46.3139 52.5376 46.3497 53.2789 45.9802 53.8907C45.4082 54.8556 45.4558 55.8793 45.5154 56.9147C45.5393 57.3618 45.5512 57.7501 44.9195 57.7148C44.705 57.7031 44.5858 57.9031 44.5143 58.1031C44.3713 58.5267 43.978 58.8209 43.9184 59.3033C43.8946 59.5387 43.5847 59.5622 43.394 59.6328C43.0245 59.7857 42.7981 59.974 42.7147 60.4094C42.5359 61.3389 41.5824 61.6213 40.8792 60.9859C40.188 60.3623 39.7232 59.6328 39.5563 58.6915C39.3656 57.6207 38.9008 56.6323 38.2692 55.7498C37.5541 54.7379 36.9939 53.6907 36.7317 52.4787C36.5768 51.7139 36.2788 50.9844 35.814 50.3255C34.8725 49.0076 34.5149 47.4662 34.1097 45.9248C33.7879 44.7128 33.8118 43.442 33.2874 42.2772C33.0967 41.8653 33.3112 41.4182 33.4423 41.0181C33.5734 40.6298 33.5257 40.2768 33.3112 39.9474C32.9894 39.4532 32.9298 38.9355 32.9775 38.3707C32.8583 38.2412 32.7153 37.9353 32.4173 38.3354Z"/>
    </g>

    <g id="tng-text" fill="white">
        <path d="M47.3511 35.4408C46.6241 36.7469 46.338 38.1706 46.1593 39.6179C46.1116 39.9709 46.0997 40.4769 45.7779 40.5122C45.4442 40.5475 45.1105 40.1592 44.9913 39.7709C44.5622 38.453 44.2166 37.0999 43.8591 35.7585C43.6565 34.9937 43.4658 34.2053 42.9414 33.5581C42.7745 33.3463 42.6315 33.2875 42.4527 33.5228C42.0237 33.464 41.8926 33.2169 42.0356 32.8286C42.0952 32.6639 42.1309 32.4992 42.2143 32.3462C42.3454 32.0991 42.3812 31.8991 41.9879 31.8755C39.3897 31.7343 36.8869 32.205 34.4794 33.1463C34.3841 33.1816 34.3007 33.2287 34.2649 33.3699C34.6344 33.6523 35.1826 33.4169 35.6593 33.8641C34.8251 33.8641 34.1338 33.8758 33.4306 33.8523C33.1088 33.8405 33.0016 33.5934 33.0373 33.311C33.2042 31.6049 33.6094 30.5694 35.4091 30.0517C37.4471 29.4752 39.5328 29.2163 41.6542 29.3928C42.6196 29.4752 43.1678 29.9223 43.3942 30.8754C43.716 32.2638 43.7875 33.7111 44.2166 35.076C44.5146 36.0056 44.6814 36.9704 44.9675 37.9C45.0032 38.0059 45.027 38.1471 45.1581 38.1706C45.325 38.1941 45.4203 38.053 45.4799 37.9471C45.623 37.6882 45.7779 37.4293 45.766 37.1234C45.7302 36.5115 45.9447 35.9703 46.2665 35.4761C46.5407 35.0643 46.636 34.5818 46.8386 34.1347C47.1366 33.464 47.1604 32.7933 46.8148 32.1462C46.3261 31.2284 46.779 30.3929 47.0174 29.5458C47.0889 29.2987 48.1019 28.8162 48.2807 28.9221C48.6979 29.1692 48.7455 29.5575 48.6859 29.9929C48.6383 30.3459 48.5787 30.6753 48.3641 30.9813C48.1258 31.299 48.1377 31.4637 48.2211 32.2168C48.388 32.0403 48.5548 31.8991 48.6621 31.7226C49.115 30.9577 49.7824 30.5459 50.6882 30.4871C50.9385 30.4753 51.1292 30.3106 51.3318 30.2164C51.9515 29.934 52.6785 30.2988 52.7977 30.9577C52.8692 31.3343 52.607 31.4872 52.3091 31.5931C52.1899 31.6402 52.023 31.6637 51.9038 31.6284C50.6286 31.2401 49.9016 32.052 49.1865 32.8404C48.1377 34.017 48.0781 35.4878 48.0781 36.9469C48.0781 37.7941 48.8051 38.1 49.5321 38.2765C50.0804 38.4177 50.6048 38.3942 50.9623 37.8529C51.0338 37.7353 51.1411 37.6058 51.1411 37.4882C51.1172 36.7704 51.3079 36.0997 51.4152 35.4055C51.4629 35.0996 51.5225 34.8525 51.8562 34.7936C52.2256 34.7348 52.3806 34.9819 52.4759 35.2996C52.7977 36.4056 53.048 37.5235 52.8931 38.7001C52.7739 39.6179 53.0003 40.5357 53.1553 41.4417C53.1791 41.5594 53.191 41.677 53.191 41.7947C53.191 41.9477 53.191 42.1359 52.9765 42.1595C52.8096 42.183 52.7262 42.0418 52.6904 41.9124C52.464 40.9946 51.9277 40.1945 51.6893 39.2884C51.4867 38.5236 51.4152 38.4765 50.712 38.7825C49.556 39.2884 47.3988 38.6413 47.4822 36.8645C47.4941 36.488 47.4941 36.1232 47.4941 35.7467C47.5418 35.6055 47.5895 35.4761 47.4464 35.3584C47.3868 35.3114 47.3392 35.3349 47.4107 35.3702C47.3749 35.3937 47.363 35.429 47.3511 35.4408Z"/>
        <path d="M39.6996 38.3353C39.2467 39.1472 39.4851 40.1827 38.8058 40.9357C38.5912 41.1828 38.4363 41.4888 38.186 41.7241C37.9596 41.9359 37.6974 42.0889 37.3756 41.9359C37.0419 41.7829 36.9823 41.4652 37.0061 41.1358C37.018 40.9475 37.0657 40.7475 37.1253 40.5592C37.8881 38.3942 39.1514 36.5115 40.4862 34.6642C40.9987 34.6995 40.9153 35.0289 40.808 35.3349C40.6412 35.8644 40.4386 36.3821 40.2121 36.8881C40.0095 37.3587 39.8784 37.8647 39.6996 38.3353Z"/>
        <path d="M39.6996 38.3354C39.6758 37.2881 40.1287 36.3703 40.4743 35.429C40.5697 35.1702 40.7246 34.9231 40.4982 34.6642C41.0106 33.8523 41.5827 33.0757 42.2144 32.3462C42.262 32.7463 42.0714 33.1934 42.4527 33.5228C41.9998 33.6523 41.8211 34.0288 41.6661 34.4171C41.1179 35.782 40.4624 37.0881 39.6996 38.3354Z"/>
    </g>
</svg>
